<svg xmlns="http://www.w3.org/2000/svg" width="410.944" height="67.571" viewBox="0 0 410.944 67.571"><g id="Grupo_59" data-name="Grupo 59" transform="translate(-227.858 -756)"><g id="Grupo_55" data-name="Grupo 55" transform="translate(386.54 800.378)"><g id="Grupo_54" data-name="Grupo 54"><path id="Trazado_189" data-name="Trazado 189" d="M546.146,845.014h8.9c5.934,0,11.485,3.637,11.485,11.294,0,7.72-6.54,11.293-11.963,11.293h-8.422Zm7.018,18.95c5.04,0,9.156-2.169,9.156-7.656s-3.573-7.657-8.486-7.657h-3.669v15.313Z" transform="translate(-546.146 -845.014)" fill="#fff"></path><path id="Trazado_190" data-name="Trazado 190" d="M594.717,845.014h14.961v3.637H598.736V854.2H609.1v3.636H598.736v6.125h11.516V867.6H594.717Z" transform="translate(-570.502 -845.014)" fill="#fff"></path><path id="Trazado_191" data-name="Trazado 191" d="M631,863.964l12.059-15.313H631.193v-3.637h16.876v3.637l-12.155,15.313H648.26V867.6H631Z" transform="translate(-588.697 -845.014)" fill="#fff"></path><path id="Trazado_192" data-name="Trazado 192" d="M677.687,845.014h3.477l9.73,22.586H686.3l-2.105-5.167H674.4l-2.042,5.167h-4.5Zm5.1,13.973-3.477-9.187-3.541,9.187Z" transform="translate(-607.18 -845.014)" fill="#fff"></path><path id="Trazado_193" data-name="Trazado 193" d="M719.12,845.014h7.848c4.338,0,8.422,1.4,8.422,6.476a5.788,5.788,0,0,1-5.232,6.125l6,9.985h-4.849l-5.232-9.57h-2.935v9.57H719.12Zm7.146,9.571c2.265,0,4.913-.191,4.913-3.126,0-2.68-2.488-3-4.562-3h-3.477v6.125Z" transform="translate(-632.884 -845.014)" fill="#fff"></path><g id="Grupo_53" data-name="Grupo 53" transform="translate(116.957 5.912)"><path id="Trazado_194" data-name="Trazado 194" d="M780.741,857.705h5.675c3.137,0,6.09,1.015,6.09,4.683a4.185,4.185,0,0,1-3.783,4.429l4.337,7.22h-3.506l-3.783-6.921h-2.122v6.921h-2.906Zm5.167,6.92c1.638,0,3.552-.139,3.552-2.26,0-1.938-1.8-2.169-3.3-2.169h-2.515v4.429Z" transform="translate(-780.741 -857.29)" fill="#fff"></path><path id="Trazado_195" data-name="Trazado 195" d="M809.888,857.705h10.82v2.63H812.8v4.014h7.5v2.63h-7.5v4.429h8.327v2.63H809.888Z" transform="translate(-795.357 -857.29)" fill="#fff"></path><path id="Trazado_196" data-name="Trazado 196" d="M838.158,857.705h3.852l7.912,12.134h.046V857.705h2.907v16.332h-3.691l-8.074-12.526h-.046v12.526h-2.906Z" transform="translate(-809.533 -857.29)" fill="#fff"></path><path id="Trazado_197" data-name="Trazado 197" d="M876.66,860.335h-5.006v-2.63h12.918v2.63h-5.006v13.7H876.66Z" transform="translate(-826.33 -857.29)" fill="#fff"></path><path id="Trazado_198" data-name="Trazado 198" d="M918.687,857.705H921.2l7.036,16.332h-3.322l-1.522-3.737h-7.082l-1.476,3.737h-3.253Zm3.691,10.1-2.514-6.644-2.561,6.644Z" transform="translate(-846.352 -857.29)" fill="#fff"></path><path id="Trazado_199" data-name="Trazado 199" d="M972.666,861.117a4.451,4.451,0,0,0-3.437-1.615,5.54,5.54,0,0,0-5.605,5.837c0,3.483,2.237,6.067,5.605,6.067a4.592,4.592,0,0,0,3.668-1.984l2.4,1.707a7.226,7.226,0,0,1-6.09,2.907c-5.029,0-8.627-3.414-8.627-8.512a8.215,8.215,0,0,1,8.627-8.65,7.1,7.1,0,0,1,5.721,2.583Z" transform="translate(-870.921 -856.873)" fill="#fff"></path><path id="Trazado_200" data-name="Trazado 200" d="M997.478,857.705h2.514l7.036,16.332h-3.322l-1.523-3.737H995.1l-1.476,3.737h-3.253Zm3.691,10.1-2.514-6.644-2.56,6.644Z" transform="translate(-885.862 -857.29)" fill="#fff"></path><path id="Trazado_201" data-name="Trazado 201" d="M1027.432,857.705h5.675c3.137,0,6.09,1.015,6.09,4.683a4.185,4.185,0,0,1-3.784,4.429l4.337,7.22h-3.507l-3.784-6.921h-2.122v6.921h-2.907Zm5.167,6.92c1.638,0,3.553-.139,3.553-2.26,0-1.938-1.8-2.169-3.3-2.169h-2.514v4.429Z" transform="translate(-904.445 -857.29)" fill="#fff"></path></g><line id="L&#xED;nea_63" data-name="L&#xED;nea 63" x2="135.306" transform="translate(116.957 0.546)" fill="none" stroke="#106fdc" stroke-width="6"></line></g></g><g id="Grupo_58" data-name="Grupo 58" transform="translate(227.858 756)"><g id="Grupo_57" data-name="Grupo 57"><g id="Grupo_56" data-name="Grupo 56" transform="translate(0.063)"><rect id="Rect&#xE1;ngulo_457" data-name="Rect&#xE1;ngulo 457" width="7.963" height="7.967" transform="translate(77.833 49.621)" fill="#106fdc"></rect><path id="Trazado_202" data-name="Trazado 202" d="M235.947,798.406v-4.479H247l15.335-6.215,1.507-1.622a.5.5,0,0,0-.155-.031H235.947v-7.138h27.739a.507.507,0,0,0,.507-.507v-6.855a.507.507,0,0,0-.507-.507H235.947v-6.677a.51.51,0,0,1,.513-.507H305.3a.51.51,0,0,1,.513.507V767.5h7.963V756.507a.51.51,0,0,0-.513-.507H228.5a.51.51,0,0,0-.513.507v45.127Z" transform="translate(-227.984 -756)" fill="#106fdc"></path></g><path id="Trazado_203" data-name="Trazado 203" d="M471.972,813.179l-20.843-30.81a.48.48,0,0,0-.4-.211H422.1a.481.481,0,0,0-.481.481V815.9a.481.481,0,0,0,.481.481h33.976a.481.481,0,0,0,.481-.481v-6.5a.481.481,0,0,0-.481-.481H429.562a.481.481,0,0,1-.481-.481V790.1a.481.481,0,0,1,.481-.481H446.77a.482.482,0,0,1,.4.211l17.343,25.635a.481.481,0,0,1,.082.269v13.012a.48.48,0,0,1-.481.481H422.095a.481.481,0,0,0-.481.481v6.5a.481.481,0,0,0,.481.481h49.479a.481.481,0,0,0,.481-.481V813.448A.479.479,0,0,0,471.972,813.179Z" transform="translate(-325.018 -769.117)" fill="#fff"></path><path id="Trazado_204" data-name="Trazado 204" d="M227.95,816.619l35.27-14.763,17.614-19.441a.533.533,0,0,1,.442-.235H313.06a.533.533,0,0,1,.533.533v33.949a.533.533,0,0,1-.533.533H276.829a.533.533,0,0,1-.533-.533v-7.216a.533.533,0,0,1,.533-.533h27.948a.534.534,0,0,0,.533-.534V791a.533.533,0,0,0-.533-.533h-19.1a.533.533,0,0,0-.442.235L269.8,806.916l-33.565,13.794a.531.531,0,0,0-.092.3v6.726a.533.533,0,0,0,.533.533h76.392a.534.534,0,0,1,.533.534v7.216a.533.533,0,0,1-.533.534H228.392a.534.534,0,0,1-.534-.534v-19.1A.532.532,0,0,1,227.95,816.619Z" transform="translate(-227.858 -769.128)" fill="#fff"></path></g></g></g></svg>