<svg width="153" height="44" viewBox="0 0 153 44" fill="none" xmlns="http://www.w3.org/2000/svg">
<g clip-path="url(#clip0_697_24792)">
<mask id="mask0_697_24792" style="mask-type:luminance" maskUnits="userSpaceOnUse" x="0" y="0" width="42" height="44">
<path d="M14.9744 0.5H26.4309C34.697 0.5 41.4053 7.25525 41.4053 15.5743V28.4257C41.4053 36.7448 34.6948 43.5 26.4309 43.5H14.9744C6.71045 43.5 0 36.7448 0 28.4257V15.5743C0 7.25525 6.71045 0.5 14.9744 0.5Z" fill="white"/>
</mask>
<g mask="url(#mask0_697_24792)">
<path d="M41.4053 0.5H0V43.5H41.4053V0.5Z" fill="url(#paint0_linear_697_24792)"/>
</g>
<path d="M20.0522 35.7605C17.2573 35.7605 14.6272 34.6633 12.6497 32.6748C11.8389 31.8586 11.8389 30.5359 12.6497 29.7197C13.4604 28.9035 14.7744 28.9035 15.5852 29.7197C16.7783 30.9207 18.3647 31.5821 20.05 31.5821C21.7354 31.5821 23.324 30.9207 24.5149 29.7197C25.3257 28.9035 26.6396 28.9035 27.4504 29.7197C28.2612 30.5359 28.2612 31.8586 27.4504 32.6748C25.4729 34.6656 22.845 35.7605 20.0479 35.7605" fill="white"/>
<path d="M31.1704 8.24399H20.1929C20.1467 8.24399 20.0984 8.23956 20.0522 8.23956C14.4009 8.23956 9.81958 12.8514 9.81958 18.5405C9.81958 24.2296 14.4009 28.8415 20.0522 28.8415C25.7036 28.8415 30.2849 24.2296 30.2849 18.5405C30.2849 16.5498 29.7224 14.6918 28.7512 13.1169H31.1704C32.5063 13.1169 33.5918 12.0264 33.5918 10.6793C33.5918 9.33226 32.5085 8.24177 31.1704 8.24177M20.0522 23.743C17.2024 23.743 14.8843 21.4094 14.8843 18.5405C14.8843 15.6717 17.2024 13.3381 20.0522 13.3381C22.9021 13.3381 25.2202 15.6717 25.2202 18.5405C25.2202 21.4094 22.9021 23.743 20.0522 23.743Z" fill="white"/>
<path d="M67.8999 21.666C67.8999 27.4391 63.6921 33.0951 56.5159 33.0951C50.2053 33.0951 45.1912 28.1337 45.1912 21.8385C45.1912 15.5434 50.4075 10.7855 56.6038 10.7855C61.4158 10.7855 66.0564 14.0636 67.2671 18.3857H61.1587C60.1501 16.6162 58.5066 15.6009 56.4609 15.6009C53.031 15.6009 50.6404 18.3857 50.6404 21.8385C50.6404 25.2914 52.8882 28.2797 56.4895 28.2797C59.0251 28.2797 60.928 27.0321 61.5894 24.8269H55.2217V20.4472H67.9021V21.666H67.8999Z" fill="#061A2D"/>
<path d="M74.384 26.0766C74.6433 27.9036 76.1704 29.1224 78.1304 29.1224C79.4268 29.1224 80.2617 28.6292 81.0417 27.6139H85.9417C84.4146 31.1242 81.5032 33.1835 78.1326 33.1835C73.5205 33.1835 69.6599 29.4409 69.6599 24.6543C69.6599 19.8677 73.3491 16.0101 78.0469 16.0101C82.7446 16.0101 86.491 19.8102 86.491 24.8003C86.491 25.2648 86.4624 25.6408 86.3745 26.0766H74.3862H74.384ZM81.7031 22.8273C81.3296 21.1727 79.8882 20.0712 78.0425 20.0712C76.3132 20.0712 74.8147 21.1152 74.4412 22.8273H81.7031Z" fill="#061A2D"/>
<path d="M99.167 32.6615V23.7253C99.167 21.5488 98.4177 20.5335 96.6599 20.5335C94.7285 20.5335 93.9221 21.6063 93.9221 23.7828V32.6593H89.1387V16.5586H93.6057V18.2707H93.6628C94.6714 16.6162 96.0842 16.0079 98.0156 16.0079C100.896 16.0079 103.953 17.6336 103.953 22.3893V32.6593H99.1692L99.167 32.6615Z" fill="#061A2D"/>
<path d="M111.215 26.0766C111.474 27.9036 113.001 29.1224 114.961 29.1224C116.257 29.1224 117.092 28.6292 117.872 27.6139H122.772C121.245 31.1242 118.334 33.1835 114.963 33.1835C110.351 33.1835 106.49 29.4409 106.49 24.6543C106.49 19.8677 110.18 16.0101 114.877 16.0101C119.575 16.0101 123.322 19.8102 123.322 24.8003C123.322 25.2648 123.293 25.6408 123.205 26.0766H111.217H111.215ZM118.534 22.8273C118.16 21.1727 116.719 20.0712 114.873 20.0712C113.144 20.0712 111.645 21.1152 111.272 22.8273H118.534Z" fill="#061A2D"/>
<path d="M125.938 32.6615V16.5608H130.434V18.2729H130.491C131.326 16.5608 132.653 16.0101 134.497 16.0101V20.8542C131.645 20.883 130.722 21.9557 130.722 23.785V32.6615H125.938Z" fill="#061A2D"/>
<path d="M148.217 32.6615V30.9207H148.159C147.467 32.343 145.567 33.2123 143.462 33.2123C138.735 33.2123 135.45 29.4697 135.45 24.5968C135.45 19.7239 138.88 16.0101 143.462 16.0101C145.422 16.0101 147.237 16.7931 148.159 18.2729H148.217V16.5608H153V32.6615H148.217ZM148.217 24.5968C148.217 22.334 146.402 20.5069 144.154 20.5069C141.906 20.5069 140.234 22.334 140.234 24.6543C140.234 26.9746 141.992 28.7154 144.211 28.7154C146.43 28.7154 148.217 26.9171 148.217 24.5968Z" fill="#061A2D"/>
</g>
<defs>
<linearGradient id="paint0_linear_697_24792" x1="0.5654" y1="24.3718" x2="41.9707" y2="24.3718" gradientUnits="userSpaceOnUse">
<stop stop-color="#55D580"/>
<stop offset="1" stop-color="#1DB2AA"/>
</linearGradient>
<clipPath id="clip0_697_24792">
<rect width="153" height="43" fill="white" transform="translate(0 0.5)"/>
</clipPath>
</defs>
</svg>
